{"accessors":[{"bufferView":2,"componentType":5126,"count":8474,"max":[613.2902221679688,930.2115478515625,506.019775390625],"min":[-538.733642578125,-120.26820373535156,-505.8627624511719],"type":"VEC3","byteOffset":0},{"bufferView":2,"byteOffset":101688,"componentType":5126,"count":8474,"max":[1,1,1],"min":[-1,-1,-1],"type":"VEC3"},{"bufferView":3,"componentType":5126,"count":8474,"max":[1,1,1,1],"min":[-1,-1,-1,-1],"type":"VEC4","byteOffset":0},{"bufferView":0,"componentType":5125,"count":40314,"max":[8473],"min":[0],"type":"SCALAR","byteOffset":0},{"bufferView":2,"byteOffset":203376,"componentType":5126,"count":1370,"max":[521.7255859375,657.3810424804688,516.2969360351562],"min":[-521.7254638671875,24.07305908203125,-523.1447143554688],"type":"VEC3"},{"bufferView":2,"byteOffset":219816,"componentType":5126,"count":1370,"max":[0.9994363784790039,0.999981701374054,0.9956393241882324],"min":[-0.9994367957115173,-1,-0.9956396222114563],"type":"VEC3"},{"bufferView":3,"byteOffset":135584,"componentType":5126,"count":1370,"max":[0.99852055311203,0.47054755687713623,1,1],"min":[-0.9999999403953552,-0.8692598938941956,-1,1],"type":"VEC4"},{"bufferView":1,"componentType":5126,"count":1370,"max":[1.0431643724441528,1.0046133995056152],"min":[0.012847724370658398,-0.011175325140357018],"type":"VEC2","byteOffset":0},{"bufferView":0,"byteOffset":161256,"componentType":5125,"count":7242,"max":[1369],"min":[0],"type":"SCALAR"},{"bufferView":2,"byteOffset":236256,"componentType":5126,"count":2228,"max":[582.2109985351562,1192.452392578125,53.00552749633789],"min":[-344.58660888671875,4.435626983642578,-59.2465934753418],"type":"VEC3"},{"bufferView":2,"byteOffset":262992,"componentType":5126,"count":2228,"max":[1,1,0.9999962449073792],"min":[-1,-1,-0.9999962449073792],"type":"VEC3"},{"bufferView":3,"byteOffset":157504,"componentType":5126,"count":2228,"max":[0.9998223781585693,0.9998716115951538,1,1],"min":[-0.999824583530426,-0.9999611973762512,-1,-1],"type":"VEC4"},{"bufferView":0,"byteOffset":190224,"componentType":5125,"count":10908,"max":[2227],"min":[0],"type":"SCALAR"},{"bufferView":2,"byteOffset":289728,"componentType":5126,"count":426,"max":[506.0235900878906,529.4976806640625,55.9659423828125],"min":[293.7868957519531,91.93376922607422,-62.08330535888672],"type":"VEC3"},{"bufferView":2,"byteOffset":294840,"componentType":5126,"count":426,"max":[0.993937075138092,0.9903473258018494,1],"min":[-0.9752052426338196,-0.9997125864028931,-1],"type":"VEC3"},{"bufferView":3,"byteOffset":193152,"componentType":5126,"count":426,"max":[1,0.385113000869751,0.20515723526477814,1],"min":[-1,-0.508598268032074,-1,-1],"type":"VEC4"},{"bufferView":1,"byteOffset":10960,"componentType":5126,"count":426,"max":[0.9482717514038086,1.019988775253296],"min":[0.05172795057296753,-0.019988715648651123],"type":"VEC2"},{"bufferView":0,"byteOffset":233856,"componentType":5125,"count":2544,"max":[425],"min":[0],"type":"SCALAR"},{"bufferView":2,"byteOffset":299952,"componentType":5126,"count":140,"max":[22.01458740234375,2.8937909603118896,495.8997802734375],"min":[-22.01495361328125,-33.74074172973633,461.73883056640625],"type":"VEC3"},{"bufferView":2,"byteOffset":301632,"componentType":5126,"count":140,"max":[0.99764084815979,1,0.9970243573188782],"min":[-0.9976407885551453,-1,-0.8310311436653137],"type":"VEC3"},{"bufferView":3,"byteOffset":199968,"componentType":5126,"count":140,"max":[1,0.8270988464355469,0.8167902827262878,1],"min":[-0.2683493196964264,-0.7772388458251953,-0.8300870656967163,-1],"type":"VEC4"},{"bufferView":1,"byteOffset":14368,"componentType":5126,"count":140,"max":[0.9995003938674927,1.1146178245544434],"min":[0.0004995465278625488,-0.3260817527770996],"type":"VEC2"},{"bufferView":0,"byteOffset":244032,"componentType":5125,"count":708,"max":[139],"min":[0],"type":"SCALAR"},{"bufferView":2,"byteOffset":303312,"componentType":5126,"count":12,"max":[133.728759765625,98.4941635131836,511.7152099609375],"min":[-133.7291259765625,54.44355010986328,481.7551574707031],"type":"VEC3"},{"bufferView":2,"byteOffset":303456,"componentType":5126,"count":12,"max":[0.16474345326423645,0.3202817738056183,0.944753885269165],"min":[-0.16474470496177673,0.31610366702079773,0.9332936406135559],"type":"VEC3"},{"bufferView":3,"byteOffset":202208,"componentType":5126,"count":12,"max":[0.9964132308959961,0.008949737064540386,0.1736486554145813,1],"min":[0.9848076701164246,-0.008829998783767223,-0.17364808917045593,1],"type":"VEC4"},{"bufferView":1,"byteOffset":15488,"componentType":5126,"count":12,"max":[1.0087890625,1.072078824043274],"min":[-0.01257686223834753,-0.10831916332244873],"type":"VEC2"},{"bufferView":0,"byteOffset":246864,"componentType":5125,"count":36,"max":[11],"min":[0],"type":"SCALAR"},{"bufferView":2,"byteOffset":303600,"componentType":5126,"count":256,"max":[11121.8330078125,5593.30517578125,11121.83203125],"min":[-11121.83203125,-100,-11121.83203125],"type":"VEC3"},{"bufferView":2,"byteOffset":306672,"componentType":5126,"count":256,"max":[0.9376953840255737,0.9986979365348816,0.9376953840255737],"min":[-0.9376953840255737,-1,-0.9376953840255737],"type":"VEC3"},{"bufferView":3,"byteOffset":202400,"componentType":5126,"count":256,"max":[0.999259889125824,0.9205179214477539,0.7723719477653503,1],"min":[-0.3410934805870056,-0.918687105178833,-0.8372517824172974,1],"type":"VEC4"},{"bufferView":0,"byteOffset":247008,"componentType":5125,"count":1338,"max":[255],"min":[0],"type":"SCALAR"}],"asset":{"extras":{"author":"CB3D Studio (https://sketchfab.com/corentin3D)","license":"CC-BY-4.0 (http://creativecommons.org/licenses/by/4.0/)","source":"https://sketchfab.com/models/35428cf1fda24006b1e23b71060aec9a","title":"Archviz | Teapot (VizPeople FREE Download)"},"generator":"Sketchfab-3.20.7","version":"2.0"},"bufferViews":[{"buffer":0,"byteLength":252360,"byteOffset":0,"name":"floatBufferViews","target":34963},{"buffer":0,"byteLength":15584,"byteOffset":252360,"byteStride":8,"name":"floatBufferViews","target":34962},{"buffer":0,"byteLength":309744,"byteOffset":267944,"byteStride":12,"name":"floatBufferViews","target":34962},{"buffer":0,"byteLength":206496,"byteOffset":577688,"byteStride":16,"name":"floatBufferViews","target":34962},{"buffer":0,"byteOffset":784184,"byteLength":1497},{"buffer":0,"byteOffset":785684,"byteLength":22372},{"buffer":0,"byteOffset":808056,"byteLength":18339},{"buffer":0,"byteOffset":826396,"byteLength":1497}],"buffers":[{"byteLength":827896,"uri":"data:application/octet-stream;base64,"}],"images":[{"bufferView":4,"mimeType":"image/png"},{"bufferView":5,"mimeType":"image/jpeg"},{"bufferView":6,"mimeType":"image/png"},{"bufferView":7,"mimeType":"image/png"}],"materials":[{"doubleSided":true,"emissiveFactor":[0,0,0],"name":"material_1","pbrMetallicRoughness":{"baseColorFactor":[1,1,0,1],"metallicFactor":0,"roughnessFactor":0.2},"alphaMode":"OPAQUE"},{"doubleSided":true,"emissiveFactor":[0,0,0],"name":"material_2","pbrMetallicRoughness":{"baseColorFactor":[1,1,0,1],"metallicFactor":0,"metallicRoughnessTexture":{"index":3,"texCoord":0},"roughnessFactor":0.3854298142},"alphaMode":"OPAQUE"},{"doubleSided":true,"emissiveFactor":[0,0,0],"name":"material_3","pbrMetallicRoughness":{"baseColorFactor":[1,1,0,1],"metallicFactor":0.25,"roughnessFactor":0.3917191224},"alphaMode":"OPAQUE"},{"doubleSided":true,"name":"material_4","pbrMetallicRoughness":{"baseColorFactor":[1,1,1,1],"baseColorTexture":{"index":1,"texCoord":0},"metallicFactor":0.25,"roughnessFactor":0.2},"emissiveFactor":[0,0,0],"alphaMode":"OPAQUE"},{"doubleSided":true,"emissiveFactor":[0.2076474225,1,0.46420338419999996],"name":"material","pbrMetallicRoughness":{"baseColorFactor":[0.1410743112,1,0.3113371184,1],"metallicFactor":1,"metallicRoughnessTexture":{"index":0,"texCoord":0},"roughnessFactor":0.9577051495},"alphaMode":"OPAQUE"},{"alphaMode":"BLEND","doubleSided":true,"emissiveFactor":[0,0,0],"name":"material_6","pbrMetallicRoughness":{"baseColorFactor":[0.8,0.8,0.8,1],"baseColorTexture":{"index":2,"texCoord":0},"metallicFactor":0,"roughnessFactor":0.5}},{"doubleSided":false,"emissiveFactor":[0,0,0],"name":"background","pbrMetallicRoughness":{"baseColorFactor":[0.775209618,0.775209618,0.775209618,1],"metallicFactor":0,"roughnessFactor":0.19318653799999996},"alphaMode":"OPAQUE"}],"meshes":[{"name":"base001_02_0","primitives":[{"attributes":{"NORMAL":1,"POSITION":0,"TANGENT":2},"indices":3,"material":0,"mode":4}]},{"name":"base001_01_0","primitives":[{"attributes":{"NORMAL":5,"POSITION":4,"TANGENT":6,"TEXCOORD_0":7},"indices":8,"material":1,"mode":4}]},{"name":"base001_04_0","primitives":[{"attributes":{"NORMAL":10,"POSITION":9,"TANGENT":11},"indices":12,"material":2,"mode":4}]},{"name":"base001_06_0","primitives":[{"attributes":{"NORMAL":14,"POSITION":13,"TANGENT":15,"TEXCOORD_0":16},"indices":17,"material":3,"mode":4}]},{"name":"base001_03_0","primitives":[{"attributes":{"NORMAL":19,"POSITION":18,"TANGENT":20,"TEXCOORD_0":21},"indices":22,"material":4,"mode":4}]},{"name":"base001_05_0","primitives":[{"attributes":{"NORMAL":24,"POSITION":23,"TANGENT":25,"TEXCOORD_0":26},"indices":27,"material":5,"mode":4}]},{"name":"Cylinder_background_0","primitives":[{"attributes":{"NORMAL":29,"POSITION":28,"TANGENT":30},"indices":31,"material":6,"mode":4}]}],"nodes":[{"children":[1],"name":"RootNode (gltf orientation matrix)","rotation":[-0.7071067811865475,0,0,0.7071067811865476],"translation":[0,0,0],"scale":[1,1,1]},{"children":[2],"name":"RootNode (model correction matrix)"},{"children":[3],"matrix":[1,0,0,0,0,0,1,0,0,-1,0,0,0,0,0,1],"name":"teapot.FBX"},{"children":[4],"name":"RootNode"},{"children":[5,6,7,8,9,10],"matrix":[1,0,0,0,0,1,0,0,0,0,1,0,1.0962023735046387,111.97742462158203,3.348067283630371,1],"name":"base001"},{"mesh":0,"name":"base001_02_0"},{"mesh":1,"name":"base001_01_0"},{"mesh":2,"name":"base001_04_0"},{"mesh":3,"name":"base001_06_0"},{"mesh":4,"name":"base001_03_0"},{"mesh":5,"name":"base001_05_0"},{"children":[12],"matrix":[1,0,0,0,0,1,0,0,0,0,1,0,0,100,0,1],"name":"Cylinder"},{"mesh":6,"name":"Cylinder_background_0"}],"samplers":[{"magFilter":9729,"minFilter":9987,"wrapS":10497,"wrapT":10497}],"scene":0,"scenes":[{"name":"OSG_Scene","nodes":[0]}],"textures":[{"sampler":0,"source":0},{"sampler":0,"source":1},{"sampler":0,"source":2},{"sampler":0,"source":3}]}
